<?xml version="1.0" standalone="no"?>
<!DOCTYPE svg PUBLIC "-//W3C//DTD SVG 20010904//EN"
 "http://www.w3.org/TR/2001/REC-SVG-20010904/DTD/svg10.dtd">
<svg version="1.0" xmlns="http://www.w3.org/2000/svg"
 width="1080.000000pt" height="1080.000000pt" viewBox="0 0 1080.000000 1080.000000"
 preserveAspectRatio="xMidYMid meet">

<g transform="translate(0.000000,1080.000000) scale(0.100000,-0.100000)"
fill="#000000" stroke="none">
<path d="M1625 9110 c-224 -22 -392 -133 -484 -321 -72 -148 -74 -163 -78
-544 -14 -1544 -22 -4008 -13 -4055 25 -136 114 -255 235 -314 123 -60 -173
-56 4002 -56 4105 0 3890 -3 4020 49 144 57 253 163 309 301 28 69 25 0 49
1445 8 501 22 1297 30 1770 20 1158 20 1287 0 1366 -45 174 -160 289 -346 347
-50 16 -328 17 -3849 18 -2087 1 -3831 -2 -3875 -6z m7691 -338 c52 -31 75
-69 81 -140 4 -46 -26 -1907 -64 -3986 l-6 -369 -31 -40 c-39 -51 -109 -86
-194 -98 -40 -6 -1598 -8 -3852 -7 -3765 3 -3785 3 -3819 23 -19 11 -43 32
-54 47 l-20 27 12 2138 c8 1400 16 2155 23 2188 19 92 70 169 133 203 81 42
-76 41 3930 39 l3820 -2 41 -23z"/>
<path d="M4644 8506 c-239 -63 -422 -181 -557 -359 -104 -136 -172 -292 -196
-447 -7 -41 -13 -75 -14 -76 -1 0 -36 -11 -77 -24 -236 -70 -403 -241 -482
-490 -19 -61 -23 -96 -22 -190 0 -137 17 -210 76 -330 33 -68 59 -102 132
-176 77 -77 105 -98 186 -137 116 -56 213 -77 360 -77 l111 0 -3 -302 -3 -303
-27 -58 c-37 -79 -117 -161 -194 -197 -75 -36 -97 -37 -112 -6 -19 43 -74 97
-126 124 -66 33 -167 35 -238 4 -105 -46 -175 -164 -164 -274 8 -76 26 -117
75 -171 59 -64 125 -90 215 -85 110 6 192 58 241 153 18 35 26 40 79 52 144
33 297 152 368 289 62 117 68 161 68 487 l0 287 310 0 310 0 0 -679 0 -678
-47 -25 c-54 -27 -114 -100 -132 -158 -30 -102 -3 -210 73 -285 83 -82 184
-104 293 -64 193 71 244 317 96 465 -20 20 -51 43 -69 50 l-34 14 0 680 0 680
310 0 310 0 0 -529 0 -529 -54 -31 c-89 -50 -136 -135 -136 -245 0 -199 210
-334 390 -250 69 32 105 65 138 129 38 71 37 178 0 251 -30 56 -95 120 -133
130 l-25 6 0 534 0 534 280 0 280 0 0 -238 c0 -261 7 -308 60 -418 72 -148
217 -263 375 -299 43 -10 52 -17 70 -50 26 -51 81 -106 130 -130 60 -30 185
-28 245 3 102 54 154 136 154 247 1 262 -306 382 -483 189 -28 -31 -51 -63
-51 -71 0 -12 -7 -14 -32 -9 -102 20 -218 120 -260 224 -21 53 -23 74 -26 303
l-3 246 138 5 c109 5 154 11 215 31 199 64 353 198 439 382 130 278 72 595
-151 815 -113 111 -264 182 -421 196 -52 5 -72 11 -76 23 -15 51 -58 127 -95
167 -74 80 -166 122 -276 125 l-67 3 -67 62 c-73 68 -176 124 -273 149 -78 20
-232 19 -312 -1 l-64 -16 -74 79 c-120 130 -286 231 -465 283 -59 17 -109 23
-235 26 -145 4 -168 2 -251 -20z m461 -186 c188 -60 342 -177 450 -343 l49
-74 84 40 c73 35 96 41 169 45 181 10 320 -57 416 -201 30 -44 34 -47 62 -40
17 4 64 8 106 8 68 0 80 -3 118 -29 65 -45 94 -103 99 -197 l5 -79 114 0 c131
0 209 -16 294 -61 199 -106 313 -332 279 -552 -34 -223 -224 -413 -446 -447
-47 -7 -540 -10 -1534 -8 l-1465 3 -66 26 c-98 38 -154 74 -218 140 -231 236
-185 630 93 811 68 44 197 88 259 88 86 0 84 -3 89 128 9 202 79 369 216 514
130 138 247 202 457 252 11 3 83 3 160 2 111 -3 154 -8 210 -26z m2217 -2929
c27 -24 33 -36 33 -71 0 -35 -6 -47 -33 -71 -43 -39 -90 -39 -133 -1 -26 24
-32 36 -32 72 0 36 6 48 32 72 43 38 90 38 133 -1z m-3675 -116 c55 -63 11
-165 -70 -165 -52 0 -76 15 -93 57 -20 46 -10 86 29 119 26 22 38 25 71 21 27
-4 49 -15 63 -32z m2266 -329 c45 -42 48 -105 7 -146 -62 -62 -170 -18 -170
70 0 87 101 133 163 76z m-812 -286 c22 -12 49 -61 49 -89 0 -52 -48 -101 -99
-101 -88 0 -134 109 -72 171 31 31 83 39 122 19z"/>
<path d="M9597 3596 c-49 -18 -76 -42 -93 -83 -19 -43 -18 -87 2 -126 9 -17
227 -332 485 -699 257 -367 464 -670 458 -673 -5 -4 -33 -9 -62 -12 -28 -3
-1033 0 -2232 6 -1199 6 -3442 16 -4985 22 -1543 7 -2809 15 -2813 19 -5 4
186 291 423 636 238 346 436 639 441 652 16 43 10 107 -14 142 -45 68 -140 93
-207 54 -42 -25 -927 -1308 -947 -1373 -18 -60 -16 -158 4 -220 30 -93 118
-170 229 -200 28 -7 725 -14 2259 -21 1221 -5 3154 -14 4295 -20 3145 -15
3592 -14 3665 5 130 35 207 92 255 189 28 57 31 71 28 137 l-3 74 -510 726
c-303 432 -521 735 -540 747 -41 28 -92 35 -138 18z"/>
<path d="M4926 2780 c-120 -21 -196 -95 -204 -198 -8 -114 -1 -125 172 -250
l155 -112 408 6 408 7 148 105 c90 63 152 114 158 129 26 69 -1 199 -53 252
-68 69 -37 66 -618 68 -289 0 -547 -3 -574 -7z m1059 -212 c0 -10 -37 -44 -88
-81 l-88 -64 -349 -8 -348 -7 -101 72 c-96 68 -116 92 -88 103 6 3 248 5 537
4 488 -2 525 -3 525 -19z"/>
</g>
</svg>
